# xmcd CD database file
#
# Track frame offsets:
#	150
#	33507
#	66175
#	133547
#	157606
#	191820
#	216129
#
# Disc length: 3157 seconds
#
# Revision: 0
# Processed by: cddbd v1.5.2PL0 Copyright (c) Steve Scherf et al.
# Submitted via: CDex 2.05
#
DISCID=5c0c5307
DTITLE=Cornelius Claudio Kreusch - Dolomites
DYEAR=1900
DGENRE=Jazz
TTITLE0=Ay
TTITLE1=Panther
TTITLE2=Zauberberg
TTITLE3=Calm majestic
TTITLE4=Glacier slide
TTITLE5=Morning as the thunder wakes
TTITLE6=Grand Hotel Dolomites
EXTD=
EXTT0=
EXTT1=
EXTT2=
EXTT3=
EXTT4=
EXTT5=
EXTT6=
PLAYORDER=
